<?xml version="1.0" encoding="UTF-8"?>
<svg width="190px" height="120px" viewBox="0 0 190 120" version="1.1" xmlns="http://www.w3.org/2000/svg" xmlns:xlink="http://www.w3.org/1999/xlink">
    <!-- Generator: Sketch 57 (83077) - https://sketch.com -->
    <title>编组 3@1x</title>
    <desc>Created with Sketch.</desc>
    <defs>
        <path d="M43.8458586,7.72125 L9.79171717,40.9875 C-0.748484848,51.315 -0.748484848,68.02125 9.79171717,78.34875 L9.79171717,78.34875 L43.8420202,111.6225 C54.4090909,121.92 71.5129293,121.92 82.0761616,111.6225 L82.0761616,111.6225 C84.2179798,109.52625 84.2179798,106.1325 82.0761616,104.04 L82.0761616,104.04 C79.9343434,101.9475 76.4606061,101.9475 74.3226263,104.04 L74.3226263,104.04 L74.3264646,104.04 C68.0468687,110.16375 57.8866667,110.16375 51.6032323,104.04 L51.6032323,104.04 L17.5490909,70.77375 C11.2848485,64.635 11.2848485,54.705 17.5490909,48.57375 L17.5490909,48.57375 L51.6032323,15.3 C57.8866667,9.18 68.0468687,9.18 74.3264646,15.3 L74.3264646,15.3 L108.376768,48.57375 C114.644848,54.705 114.644848,64.635 108.376768,70.77375 L108.376768,70.77375 C106.238788,72.8625 106.238788,76.26 108.376768,78.3525 L108.376768,78.3525 C110.522424,80.44125 113.996162,80.44125 116.13798,78.3525 L116.13798,78.3525 C126.678182,68.02875 126.678182,51.31875 116.13798,40.995 L116.13798,40.995 L82.0838384,7.72125 C76.7983838,2.57625 69.8816162,0 62.9648485,0 L62.9648485,0 C56.0480808,0 49.1274747,2.57625 43.8458586,7.72125 L43.8458586,7.72125 Z" id="path-1"></path>
        <path d="M44.5022222,7.72125 C43.1127273,9.075 42.5753535,11.055 43.0781818,12.89625 L43.0781818,12.89625 C43.5886869,14.74875 45.0664646,16.1925 46.9587879,16.695 L46.9587879,16.695 C48.8511111,17.1825 50.8739394,16.6575 52.259596,15.3 L52.259596,15.3 C58.5353535,9.18 68.7032323,9.18 74.9789899,15.3 L74.9789899,15.3 L109.03697,48.57375 C115.301212,54.70875 115.301212,64.635 109.03697,70.77375 L109.03697,70.77375 L74.9789899,104.04 C68.7032323,110.16375 58.5353535,110.16375 52.259596,104.04 L52.259596,104.04 L18.2016162,70.77375 C11.9412121,64.635 11.9412121,54.705 18.2016162,48.57375 L18.2016162,48.57375 C19.5872727,47.22 20.1323232,45.2475 19.6256566,43.395 L19.6256566,43.395 C19.1189899,41.5425 17.6412121,40.09875 15.7450505,39.60375 L15.7450505,39.60375 C13.8527273,39.105 11.8337374,39.63375 10.4480808,40.9875 L10.4480808,40.9875 C-0.0921212121,51.315 -0.0921212121,68.02125 10.4480808,78.34875 L10.4480808,78.34875 L44.5022222,111.6225 C55.0654545,121.92 72.1731313,121.92 82.7325253,111.6225 L82.7325253,111.6225 L116.790505,78.3525 C127.338384,68.02875 127.338384,51.315 116.790505,40.9875 L116.790505,40.9875 L82.7325253,7.72125 C77.4509091,2.57625 70.5341414,0 63.6212121,0 L63.6212121,0 C56.7006061,0 49.7838384,2.57625 44.5022222,7.72125 L44.5022222,7.72125 Z" id="path-3"></path>
    </defs>
    <g id="撮合工作台" stroke="none" stroke-width="1" fill="none" fill-rule="evenodd">
        <g id="编组-3" transform="translate(-5.000000, -44.000000)">
            <rect id="矩形" x="0" y="0" width="200" height="200"></rect>
            <g id="编组" transform="translate(0.000000, 44.444444)">
                <g transform="translate(3.333333, 0.000000)">
                    <mask id="mask-2" fill="white">
                        <use xlink:href="#path-1"></use>
                    </mask>
                    <g id="Clip-2"></g>
                    <polygon id="Fill-1" fill="#FFFFFF" mask="url(#mask-2)" points="-17.3072727 138.09375 143.233131 138.09375 143.233131 -18.75 -17.3072727 -18.75"></polygon>
                </g>
                <g transform="translate(70.000000, 0.000000)">
                    <mask id="mask-4" fill="white">
                        <use xlink:href="#path-3"></use>
                    </mask>
                    <g id="Clip-4"></g>
                    <polygon id="Fill-3" fill="#FFFFFF" mask="url(#mask-4)" points="-16.6509091 138.09375 143.889495 138.09375 143.889495 -18.75 -16.6509091 -18.75"></polygon>
                </g>
            </g>
        </g>
    </g>
</svg>