<?xml version="1.0" encoding="UTF-8"?>
<svg width="200px" height="174px" viewBox="0 0 200 174" version="1.1" xmlns="http://www.w3.org/2000/svg" xmlns:xlink="http://www.w3.org/1999/xlink">
    <!-- Generator: Sketch 57 (83077) - https://sketch.com -->
    <title>Page 1@3x</title>
    <desc>Created with Sketch.</desc>
    <defs>
        <polygon id="path-1" points="0.601977981 137.265956 0.601977981 0.106865579 199.635794 0.106865579 199.635794 137.265956"></polygon>
    </defs>
    <g id="撮合工作台" stroke="none" stroke-width="1" fill="none" fill-rule="evenodd">
        <g id="Page-1" transform="translate(0.000000, 1.000000)">
            <path d="M138.650577,165.086626 C138.569302,153.80756 129.478883,144.629972 118.381456,144.629972 L112.126558,144.629972 L94.3595613,144.629972 L88.1038336,144.629972 C77.0064067,144.629972 67.9159876,153.80756 67.8347121,165.086626 L67.790757,169.791554 L74.0381912,169.791554 L132.447098,169.791554 L138.694533,169.791554 L138.650577,165.086626 Z" id="Fill-1" stroke="#FFFFFF" stroke-width="6"></path>
            <g id="Group-5">
                <mask id="mask-2" fill="white">
                    <use xlink:href="#path-1"></use>
                </mask>
                <g id="Clip-4"></g>
                <path d="M178.839087,2.14060469 L21.3893139,2.14060469 C11.7316249,2.14060469 3.8644855,10.1321762 3.8644855,19.9725377 L3.8644855,116.919582 C3.8644855,126.760794 10.9470672,135.232217 20.6047563,135.232217 L179.633597,135.232217 C189.301238,135.232217 196.373038,126.762496 196.373038,116.919582 L196.373038,19.9725377 C196.373038,10.1313254 188.506728,2.14060469 178.839087,2.14060469" id="Fill-3" stroke="#FFFFFF" stroke-width="6"></path>
                <path d="M49.8996081,40.7805717 C49.9079016,43.0624193 47.9995853,45.0558455 45.7147478,45.0737123 C43.4282515,45.0737123 41.5539383,43.0615685 41.5290581,40.7805717 L41.5290581,15.0208773 L49.8987788,15.0208773 C49.9684435,24.3635204 49.8058925,31.4260174 49.8996081,40.7805717" id="Path" fill="#FFFFFF"></path>
                <path d="M29.2465012,61.3180511 C29.5575045,61.3180511 24.7896166,60.9590132 24.7896166,57.9531341 L24.7896166,15.0208773 L33.1593374,15.0208773 L33.2712985,57.2980175 C33.2712985,61.1283225 29.5566752,61.3180511 29.2465012,61.3180511" id="Path" fill="#FFFFFF"></path>
            </g>
        </g>
    </g>
</svg>